<svg width="200" height="150" viewBox="0 0 200 150" xmlns="http://www.w3.org/2000/svg">
    <g fill-rule="nonzero" fill="none">
        <path fill="#EBEBEB" d="M0 130.96h200v1H0zM94.8 113.12H17.564a2.284 2.284 0 0 1-2.28-2.284V2.264A2.284 2.284 0 0 1 17.564 0H94.8a2.284 2.284 0 0 1 2.284 2.284v108.552a2.284 2.284 0 0 1-2.284 2.284zM17.564.08a2.184 2.184 0 0 0-2.18 2.184v108.572c0 1.205.975 2.182 2.18 2.184H94.8a2.188 2.188 0 0 0 2.184-2.184V2.264A2.188 2.188 0 0 0 94.8.08H17.564zM181.324 113.12h-77.24a2.288 2.288 0 0 1-2.284-2.284V2.264A2.288 2.288 0 0 1 104.084 0h77.24a2.284 2.284 0 0 1 2.276 2.264v108.572a2.284 2.284 0 0 1-2.276 2.284zM104.084.08a2.188 2.188 0 0 0-2.184 2.184v108.572a2.188 2.188 0 0 0 2.184 2.184h77.24a2.188 2.188 0 0 0 2.184-2.184V2.264A2.188 2.188 0 0 0 181.324.08h-77.24zM167.332 134.768h12.628v1h-12.628zM120.772 133.684h13.364v1h-13.364zM158.636 138.484h24.972v1h-24.972zM20.984 137.812h7.692v1h-7.692zM32.24 137.812h12.116v1H32.24zM75.832 136.124h21.824v1H75.832z"/>
        <path fill="#FFF" d="M108.904 25.252 86.112 48.048v75.916h79.996V25.252z"/>
        <path d="M166.108 124.18h-80a.216.216 0 0 1-.216-.216V48.048c0-.057.023-.112.064-.152l22.8-22.8a.228.228 0 0 1 .152-.064h57.2a.216.216 0 0 1 .216.216v98.716c0 .12-.097.216-.216.216zm-79.78-.428h79.564V25.468h-56.896L86.328 48.136v75.616z" fill="#E0E0E0"/>
        <path fill="#E6E6E6" d="m86.112 48.048 23.916 3.084-1.124-25.88z"/>
        <path fill="#FFF" d="M86.112 48.048h22.792V25.252z"/>
        <path d="M108.904 48.26h-22.8a.216.216 0 0 1-.2-.132.208.208 0 0 1 .048-.232l22.8-22.8a.224.224 0 0 1 .236-.048.22.22 0 0 1 .132.2v22.8a.216.216 0 0 1-.216.212zm-22.272-.428h22.06v-22.06l-22.06 22.06z" fill="#E0E0E0"/>
        <path d="m130.736 80.876 13.6-13.6a3.272 3.272 0 1 0-4.628-4.628l-13.6 13.6-13.6-13.6a3.272 3.272 0 0 0-4.628 4.628l13.6 13.6-13.6 13.6a3.272 3.272 0 1 0 4.628 4.628l13.6-13.6 13.6 13.6a3.272 3.272 0 0 0 4.628-4.628l-13.6-13.6zM89.2 69.6a4.092 4.092 0 0 1-5.784 0L70.292 56.472l5.784-5.784L89.2 63.832a4.092 4.092 0 0 1 0 5.768z" fill="#F0F0F0"/>
        <path d="m70.29 56.497 5.784-5.784.535.535a2.956 2.956 0 0 1 0 4.18l-1.604 1.604a2.956 2.956 0 0 1-4.18 0l-.535-.535z" fill="#E0E0E0"/>
        <path d="M33.884 14.284c-11.083 11.094-11.077 29.07.014 40.157 11.09 11.086 29.066 11.086 40.156 0s11.097-29.063.014-40.157a28.4 28.4 0 0 0-40.184 0zm38.544 38.544c-10.19 10.19-26.71 10.19-36.9 0-10.189-10.19-10.189-26.71 0-36.9 10.19-10.19 26.71-10.19 36.9 0a26.092 26.092 0 0 1 0 36.9z" fill="#E0E0E0"/>
        <path d="M68.904 50.26a.952.952 0 0 1-.672-1.624c7.859-7.88 7.859-20.635 0-28.516a.952.952 0 1 1 1.344-1.344c8.601 8.622 8.601 22.578 0 31.2a.952.952 0 0 1-.672.284zM33.432 40.212a.948.948 0 0 1-.924-.732 22.148 22.148 0 0 1 3.04-17.244.956.956 0 0 1 1.6 1.048 20.26 20.26 0 0 0-2.8 15.76.944.944 0 0 1-.916 1.168zM39.048 50.26a.952.952 0 0 1-.672-.28 21.92 21.92 0 0 1-4.2-5.856.95.95 0 0 1 1.704-.84 20.204 20.204 0 0 0 3.84 5.352.952.952 0 0 1-.672 1.624z" fill="#E0E0E0"/>
        <path d="m84.413 106.162 3.74 3.74-8.684 8.683a2.368 2.368 0 0 1-3.349 0l-.393-.394a2.368 2.368 0 0 1 0-3.348l8.683-8.684.003.003z" fill="#F0F0F0"/>
        <path d="m84.419 106.17 3.733 3.734-.178.178a2.148 2.148 0 0 1-3.038 0l-.701-.702a2.148 2.148 0 0 1 0-3.037l.178-.179.006.006z" fill="#E0E0E0"/>
        <path d="m113.74 85.88-8.76 8.756a5.496 5.496 0 0 0 7.772 7.764l3.544-3.54a18.828 18.828 0 0 0-2.556-12.98z" fill="#F0F0F0"/>
        <path d="M117.04 94.328a18.376 18.376 0 1 0-17.056 19.6c10.121-.705 17.756-9.478 17.056-19.6zm-35.164 2.448a16.872 16.872 0 1 1 18 15.66c-9.295.645-17.353-6.365-18-15.66z" fill="#E0E0E0"/>
        <path d="M89.352 106.364a14.232 14.232 0 0 1-4.876-9.768.616.616 0 1 1 1.228-.084c.51 7.171 6.723 12.58 13.896 12.1a.613.613 0 1 1 .084 1.224 14.212 14.212 0 0 1-10.332-3.472zM111.456 92.4a.604.604 0 0 1-.188-.3 13.088 13.088 0 0 0-6.508-8.04.616.616 0 0 1 .568-1.092 14.328 14.328 0 0 1 7.124 8.8.612.612 0 0 1-.428.756.624.624 0 0 1-.568-.124zM97.356 82.452a.616.616 0 0 1 .36-1.08c1.56-.108 3.127.039 4.64.436a.62.62 0 0 1-.316 1.2c-1.38-.365-2.812-.5-4.236-.4a.632.632 0 0 1-.448-.156z" fill="#E0E0E0"/>
        <g transform="translate(22.4 139.6)" fill="#F5F5F5">
            <ellipse cx="77.6" cy="4.896" rx="77.556" ry="4.528"/>
        </g>
        <g transform="translate(27.2 32.4)">
            <path d="M27.928 3.952c-3.224 3.244 2.256 8.28-1.364 10.592 2.956 1.484 13.316 3.368 16-2.468-1.956-1.52-.596-5.256-2.4-8.844-2.7-5.32-15.46-2.964-12.236.72z" fill="#263238"/>
            <path d="M28.22 3.868c-1.004-.168-4.4 1.52-1.872 6.052 2.036 3.664.34 3.924.34 3.924s2 .056.8-2.668c-1.272-2.908-1.868-5.924.732-7.308z" fill="#263238"/>
            <path d="M52 32.644a.984.984 0 0 0-1.32-.4l-.236.124c-.076.04-.22.136-.336.204a6.216 6.216 0 0 1-1.16.536 4.912 4.912 0 0 1-1.54.292 4.228 4.228 0 0 1-1.42-.228 5.104 5.104 0 0 1-.836-.4 29.39 29.39 0 0 1-.952-2.32c-.34-.924-.64-1.868-.904-2.824a40.06 40.06 0 0 1-.688-2.896c-.1-.484-.188-.972-.268-1.456l-.108-.724a16.098 16.098 0 0 1-.088-.68v-.08a2.01 2.01 0 0 0-4 .4c.028.34.052.6.088.884.036.284.076.556.116.832.088.552.188 1.096.3 1.64.222 1.081.503 2.15.84 3.2.156.528.348 1.048.528 1.572.18.524.4 1.036.628 1.544a28.944 28.944 0 0 0 1.484 2.996l.048.088c.144.26.359.474.62.616a8.104 8.104 0 0 0 2.42.856c.87.154 1.761.135 2.624-.056a6.92 6.92 0 0 0 3.236-1.756c.148-.136.288-.276.4-.424.112-.148.248-.288.4-.496A.984.984 0 0 0 52 32.644z" fill="#FF8B7B"/>
            <path d="M54.66 28.9h-.116a2.492 2.492 0 0 0-2 .936l-1.932 2.424v1.656c1.552.616 3.52-1.044 3.52-1.044l.996-.252a1.396 1.396 0 0 0 1.044-1.552l-.144-.972A1.392 1.392 0 0 0 54.66 28.9z" fill="#FF8B7B"/>
            <path d="M42.092 19.552c1.292 1.328 1.372 5.292 1.372 5.292l-5.168 4.16s-2.124-5.88-.948-7.956c.996-1.76 3.096-3.188 4.744-1.496z" fill="#0066EB"/>
            <path d="M42.092 19.552c1.292 1.328 1.372 5.292 1.372 5.292l-5.168 4.16s-2.124-5.88-.948-7.956c.996-1.76 3.096-3.188 4.744-1.496z" opacity=".2" fill="#FFF"/>
            <path fill="#FF8B7B" d="m33.54 108.668 2.856.312.392-7.76-2.856-.316z"/>
            <path d="M36.864 107.116h-3.356a.26.26 0 0 0-.268.244l-.224 3.172c0 .345.275.627.62.636H41.6c1.464 0 1.468-1.484.836-1.62-2.844-.6-3.952-1.432-4.956-2.224a1 1 0 0 0-.616-.208z" fill="#263238"/>
            <path fill="#000" opacity=".2" d="m36.788 101.224-.204 4h-2.872l.22-4.316z"/>
            <path d="M38.328 39.308S40.8 60 40.8 69.2c-1.948 12.8-3.6 35.264-3.6 35.264l-3.952-.104s-1.796-24.464-.132-35.028c-2.132-9.464-4.764-31.304-4.764-31.304l9.976 1.28z" fill="#263238"/>
            <path d="M30.708 45.068c-.471.207-.928.445-1.368.712.544 4.084 1.26 9.224 2.02 13.968 1.296-3.904.596-12.488-.652-14.68z" fill="#000" opacity=".2"/>
            <path fill="#FF8B7B" d="m2.612 101.464 2.356 1.644 4.064-6.624-2.356-1.644z"/>
            <path d="m5.564 102.24-2-2.692a.256.256 0 0 0-.352-.068l-2.68 1.72a.632.632 0 0 0-.14.876c.836 1.14.852 1.148 1.904 2.564.652.868 1.952 2.616 2.848 3.82.896 1.204 2.068.292 1.796-.3-1.2-2.636-1.2-4-1.176-5.296a1.016 1.016 0 0 0-.2-.624z" fill="#263238"/>
            <path fill="#000" opacity=".2" d="M9.028 96.484 6.936 99.9l-2.524-1.376 2.264-3.684z"/>
            <path d="M17.064 104.24c-2.044 0-6.3 0-6.372-3.008-.056-2.36 2.864-3.34 5.384-3.46a2.128 2.128 0 0 1 2.228 2.024v.16c2.856-.136 4.704-.76 5.38-1.824 1.524-2.4-1.396-8.596-4.216-14.584-3.32-7.044-7.08-15.024-7.152-22.668a2.128 2.128 0 0 1 2.108-2.148 2.132 2.132 0 0 1 2.128 2.108c.064 6.712 3.6 14.244 6.744 20.892 3.6 7.672 6.74 14.3 3.96 18.68-1.612 2.576-4.952 3.828-10.192 3.828z" fill="#0066EB"/>
            <path d="M35.164 38.9S28.34 62.548 25.008 71.124c-6.456 11.224-17.168 28.4-17.168 28.4l-3.42-2s8-19.84 13.38-29.08c1.444-9.6 6.904-30.904 6.904-30.904l10.46 1.36z" fill="#263238"/>
            <path d="M6.18 104.172c.136.225.345.396.592.484a.4.4 0 0 0 .4-.132.28.28 0 0 0 .088-.244c-.048-.48-1.288-1.104-1.536-1.224a.064.064 0 0 0-.08.028c-.02.03-.02.07 0 .1.147.346.326.676.536.988zm.852 0a.332.332 0 0 1 .068.152.096.096 0 0 1-.032.084.276.276 0 0 1-.264.088c-.264-.052-.612-.48-.948-1.156.436.203.833.479 1.176.816v.016z" fill="#0066EB"/>
            <path d="m5.624 103.2.024.02c.4.22 1.44.4 1.668.068a.348.348 0 0 0-.02-.4c-.4-.708-1.6.124-1.652.16a.096.096 0 0 0-.036.08.132.132 0 0 0 .016.072zm1.52-.232a.4.4 0 0 1 .032.044c.044.076.052.132.028.164-.132.192-.9.124-1.348-.052.3-.18 1-.544 1.288-.156zM38.8 107.776c.262.024.525-.042.744-.188a.4.4 0 0 0 .124-.4.3.3 0 0 0-.144-.22c-.4-.244-1.652.376-1.896.504a.068.068 0 0 0-.032.08c.012.034.04.06.076.068.37.09.748.143 1.128.156zm.496-.692a.304.304 0 0 1 .164.036c.02 0 .04.028.048.076a.272.272 0 0 1-.088.264c-.196.18-.748.204-1.492.072.42-.225.876-.377 1.348-.448h.02z" fill="#0066EB"/>
            <path d="M37.672 107.64h.028c.4-.184 1.18-.916 1.052-1.296a.348.348 0 0 0-.32-.212c-.8-.092-.856 1.356-.86 1.416 0 .032.017.062.044.08.017.01.037.014.056.012zm.72-1.36h.056c.084 0 .136.036.148.076.076.22-.436.8-.848 1.052.036-.348.164-1.128.652-1.128h-.008zM24.704 37.56l13.624 1.744c3.072-10.344 4.084-15.34 4.356-17.744a2.612 2.612 0 0 0-1.808-2.8c-.8-.256-1.832-.56-2.856-.8a33.515 33.515 0 0 0-1.052-.256 43.632 43.632 0 0 0-6.184-.8 33.116 33.116 0 0 0-2.664-.1 2.94 2.94 0 0 0-2.932 3.2c.108 1.2.192 2.316.256 3.34.152 2.4.2 4.32.164 6a51.744 51.744 0 0 1-.904 8.216z" fill="#0066EB"/>
            <path d="m24.704 37.56 13.624 1.744c3.072-10.344 4.084-15.34 4.356-17.744a2.612 2.612 0 0 0-1.808-2.8c-.8-.256-1.832-.56-2.856-.8a33.515 33.515 0 0 0-1.052-.256 43.632 43.632 0 0 0-6.184-.8 33.116 33.116 0 0 0-2.664-.1 2.94 2.94 0 0 0-2.932 3.2c.108 1.2.192 2.316.256 3.34.152 2.4.2 4.32.164 6a51.744 51.744 0 0 1-.904 8.216z" opacity=".3" fill="#FFF"/>
            <path d="M25.6 29.328c1.8-2.328 2.452-4.992 1.868-6.46l-2.032.456c.164 2.392.208 4.32.164 6.004z" fill="#0066EB" opacity=".3"/>
            <path d="M38.02 17.936a36.472 36.472 0 0 0-1.052-.256 44.26 44.26 0 0 0-6.188-.8c-.308-.024-.612-.04-.916-.056l-.532-.024.4.7c.056.096 1.416 2.32 4.8 4.712l.724.504.696-.532a5.256 5.256 0 0 0 2.192-4.212l-.124-.036z" fill="#FFF"/>
            <path d="M32.284 12.768c-.128 1.684-.524 3.4-1.504 4.12 0 0 1.248 2.076 4.48 4.344 2.024-1.548 1.708-3.552 1.708-3.552-2.152-.8-2-2.292-1.092-4.672l-1.68-.904a1.1 1.1 0 0 0-1.912.664z" fill="#FF8B7B"/>
            <path d="M34.196 12.104a1.1 1.1 0 0 0-1.892.512 6.8 6.8 0 0 0 2.94 3.004 7.284 7.284 0 0 1 .628-2.612l-1.676-.904z" fill="#000" opacity=".2"/>
            <path d="M29.668 7.488c.836 3.252 1.12 4.644 3.108 6 2.988 2.056 6.8.32 6.948-3.112.14-3.092-1.248-7.892-4.72-8.58a4.58 4.58 0 0 0-5.336 5.692z" fill="#FF8B7B"/>
            <path d="M37.944 2.468a17.56 17.56 0 0 1-6.8 3.748s2.484 5.284-2.164 3.952c-1.348-4.5 0-6.836 1.2-7.936 3.696-1.2 6.296-1.6 7.764.236z" fill="#263238"/>
            <path d="M29.512 10.692c.273.59.767 1.047 1.376 1.272.8.288 1.276-.4 1.104-1.2-.156-.716-.764-1.732-1.6-1.68a1.1 1.1 0 0 0-.88 1.608z" fill="#FF8B7B"/>
            <path d="m24.604 36.736-.772 1.14c-.06.088.04.2.196.22l14.288 1.832c.124 0 .232-.032.252-.108l.28-1.2c0-.084-.08-.168-.212-.188l-13.8-1.768a.24.24 0 0 0-.232.072z" fill="#0066EB"/>
            <path d="m26.256 38.516-.368-.048c-.072 0-.124-.056-.112-.1l.376-1.564a.132.132 0 0 1 .152-.064l.372.048c.072 0 .124.052.112.1l-.376 1.56c-.012.048-.08.076-.156.068zM37.26 39.924l-.368-.044c-.072 0-.124-.056-.112-.104l.376-1.56c0-.044.08-.076.152-.068l.372.048c.072 0 .124.056.112.1l-.376 1.564c-.012.044-.08.076-.156.064zM31.76 39.22l-.368-.048c-.076 0-.128-.052-.116-.1l.376-1.56c0-.048.08-.076.156-.068l.368.048c.072 0 .124.056.116.1l-.38 1.564c-.008.044-.08.072-.152.064zM35.24 7.348c.048.268.232.46.4.424.168-.036.276-.276.224-.544-.052-.268-.236-.46-.4-.424-.164.036-.264.276-.224.544zM38.264 6.768c.052.268.236.456.4.424.164-.032.276-.28.224-.548-.052-.268-.236-.456-.4-.424-.164.032-.272.28-.224.548z" fill="#263238"/>
            <path d="m38.4 6.252.608-.312s-.208.568-.608.312z" fill="#263238"/>
            <path d="M37.464 7.368c.357.563.79 1.076 1.284 1.524a1.164 1.164 0 0 1-.92.364l-.364-1.888z" fill="#FF5652"/>
            <path d="M35.576 10.336a.08.08 0 0 0 .096.124 2.148 2.148 0 0 1 1.952 0 .08.08 0 0 0 .108-.028.084.084 0 0 0-.024-.112 2.312 2.312 0 0 0-2.108 0s0 .008-.024.016zM34.196 6.524a.144.144 0 0 0 .056-.064c.17-.37.505-.636.904-.716a.16.16 0 0 0 .14-.18.156.156 0 0 0-.176-.14 1.6 1.6 0 0 0-1.156.896.16.16 0 0 0 .232.204zM39.164 4.496l.02-.02a.16.16 0 0 0-.04-.224 1.6 1.6 0 0 0-1.448-.216.164.164 0 0 0-.088.208.16.16 0 0 0 .208.088 1.264 1.264 0 0 1 1.144.184c.063.045.15.037.204-.02zM35.388 6.832l.608-.308s-.236.564-.608.308z" fill="#263238"/>
            <path d="M14.444 62.988a2.128 2.128 0 0 1-2.128-2.108c-.056-5.68 1.836-10.476 5.472-13.868 4.476-4.176 11.456-6.116 19.664-5.468 5.756.456 9.448-.944 13.72-2.572.704-.264 1.412-.536 2.14-.8a2.128 2.128 0 1 1 1.456 4c-.708.256-1.396.52-2.08.78-4.356 1.656-8.856 3.364-15.572 2.836-7-.556-12.832.984-16.424 4.336-2.8 2.592-4.164 6.196-4.12 10.716a2.128 2.128 0 0 1-2.108 2.148h-.02z" fill="#0066EB"/>
            <path d="m63.658 45.177-8.56 3.135a2.868 2.868 0 0 1-3.68-1.706l-3.534-9.649a2.868 2.868 0 0 1 1.706-3.68l8.56-3.135 5.504 15.023.004.012z" fill="#0066EB"/>
            <path d="m63.658 45.177-8.56 3.135a2.868 2.868 0 0 1-3.68-1.706l-3.534-9.649a2.868 2.868 0 0 1 1.706-3.68l8.56-3.135 5.504 15.023.004.012z" fill="#FFF" opacity=".7"/>
            <path d="m54.336 31.536 3.82-1.396 5.504 15.032-3.82 1.4a2.308 2.308 0 0 1-.568-.88l-4.8-13.116a2.28 2.28 0 0 1-.136-1.04z" fill="#0066EB" opacity=".2"/>
            <path fill="#0066EB" d="m66.36 34.022.938-.344.916 2.501-.939.344zM65.78 32.464l-1.348-3.688a3.264 3.264 0 0 0-4.172-1.936l-2.432.892-.14-.376 2.436-.892a3.6 3.6 0 0 1 1.248-.22 3.672 3.672 0 0 1 3.436 2.4l1.348 3.688-.376.132z"/>
            <rect fill="#0066EB" transform="rotate(160.115 62.322 36.793)" x="58.176" y="27.418" width="8.293" height="18.748" rx="2.248"/>
            <path d="M61.68 32.748a1.2 1.2 0 1 1-2.254.824 1.2 1.2 0 0 1 2.254-.824zM64.668 40.904a1.2 1.2 0 1 1-2.255.822 1.2 1.2 0 0 1 2.255-.822z" fill="#263238"/>
            <path d="m29.6 39.94-.032-.036a36.035 36.035 0 0 1-1.88-2 38.015 38.015 0 0 1-1.712-2.112 19.764 19.764 0 0 1-1.42-2.204 11.488 11.488 0 0 1-.772-1.708c.24-.8.496-1.6.8-2.368.348-.924.74-1.832 1.168-2.728a40.17 40.17 0 0 1 1.376-2.636c.24-.432.492-.86.752-1.28l.4-.616c.124-.2.272-.4.376-.572l.044-.064a2 2 0 0 0-3.264-2.308c-.2.272-.352.488-.512.724-.16.236-.304.472-.456.708-.292.472-.576.948-.848 1.432a31.6 31.6 0 0 0-1.468 2.976c-.224.504-.4 1.02-.628 1.536-.228.516-.38 1.04-.54 1.576a29.532 29.532 0 0 0-.836 3.236v.092a1.6 1.6 0 0 0 .06.876 13.112 13.112 0 0 0 1.532 2.896 19.288 19.288 0 0 0 1.976 2.4 24.68 24.68 0 0 0 2.236 2.02c.785.626 1.61 1.202 2.468 1.724a.992.992 0 0 0 1.2-1.56l-.02-.004z" fill="#FF8B7B"/>
            <path d="m34.248 41.928-.052-.104a2.48 2.48 0 0 0-1.748-1.36l-3.036-.616-1.484.74c.16 1.664 2.536 2.66 2.536 2.66l.676.772a1.4 1.4 0 0 0 1.856.22l.8-.572a1.392 1.392 0 0 0 .452-1.74z" fill="#FF8B7B"/>
            <path d="M26.876 17.06c-1.684.772-3.476 3.444-3.476 3.444l3.6 6.74s4.092-4.716 3.748-7.076c-.28-2.004-1.728-4.092-3.872-3.108z" fill="#0066EB"/>
            <path d="M26.876 17.06c-1.684.772-3.476 3.444-3.476 3.444l3.6 6.74s4.092-4.716 3.748-7.076c-.28-2.004-1.728-4.092-3.872-3.108z" opacity=".3" fill="#FFF"/>
        </g>
        <g transform="translate(109.2 24)">
            <path d="M60.116 113.772c-3.524 0-6.988-.724-8.668-2.916-7.952-10.4-7.88-31.32-7.812-51.564.04-10.9.9-21.2-.312-29.2-.712-4.716-3.2-7.952-5.712-9.624-3.728-2.464-8.848-1.14-11.036-.576a2.128 2.128 0 1 1-1.064-4.12c2.732-.708 9.14-2.36 14.444 1.144 3.58 2.364 6.676 6.584 7.576 12.54 1.26 8.32.4 18.772.36 29.836-.068 19.532-.136 39.728 6.936 48.964.572.744 2.8 1.412 6.5 1.22.328 0 .648-.036.964-.064a2.128 2.128 0 0 1 1.912-3.06c4.652 0 7.1.4 7.572 2.528.136.612.208 2.148-2.04 3.2-1.68.788-5.688 1.692-9.62 1.692z" fill="#0066EB"/>
            <path fill="#FFC3BD" d="m13.548 115.608-4.34-1.708 2.288-7.524 4.344 1.704z"/>
            <path d="M9.104 113.44 14 115.36a.3.3 0 0 1 .184.32l-.48 3.048a.5.5 0 0 1-.68.38c-1.228-.508-3.152-1.348-4.708-1.96-.956-.376-2.776-.976-4.1-1.496-1.324-.52-.98-1.896-.4-1.8 2.636.424 3.644-.028 4.696-.42a.8.8 0 0 1 .592.008z" fill="#263238"/>
            <path fill="#000" opacity=".2" d="m15.84 108.084-4.344-1.708-1.18 3.88 4.344 1.708z"/>
            <path d="M21.268 49.844S17.34 69.26 15.84 78.836c-1.688 10.732-6.148 30.336-6.148 30.336l5.772 2.268s8.244-20.072 9.392-29.792c3.46-7.9 10.34-31.148 10.34-31.148l-13.928-.656z" fill="#0066EB"/>
            <path fill="#263238" d="m9.412 109.204 6.336 2.492 1.084-1.92-7.084-2.936z"/>
            <path d="M7.86 113.524a1.036 1.036 0 0 1-.544-.4.496.496 0 0 1 0-.456.248.248 0 0 1 .208-.16c.42-.044 1.2.98 1.276 1.1a.08.08 0 0 1 0 .088.08.08 0 0 1-.08.036 4.072 4.072 0 0 1-.86-.208zm-.212-.836a.2.2 0 0 0-.104-.02c-.024 0-.052 0-.08.068a.32.32 0 0 0 0 .312c.116.212.516.4 1.096.496a3.144 3.144 0 0 0-.912-.856z" fill="#0066EB"/>
            <path d="M8.712 113.728a.064.064 0 0 1-.032-.024c-.256-.304-.616-1.244-.4-1.568a.264.264 0 0 1 .316-.1c.12.03.222.11.28.22.248.444-.032 1.38-.044 1.42a.084.084 0 0 1-.064.056.056.056 0 0 1-.056-.004zm-.136-1.528h-.032c-.104-.024-.128 0-.14.036-.12.192.076.872.304 1.244.114-.37.114-.766 0-1.136a.28.28 0 0 0-.132-.144z" fill="#0066EB"/>
            <path d="M29.736 61.6c-2.176 2.696-3.036 9.568-3.028 15.296 1.468-4.044 3.152-9.18 4.632-13.844L29.736 61.6z" fill="#000" opacity=".2"/>
            <path fill="#FFC3BD" d="M39.668 116.332h-4.664l-.62-7.84h4.664z"/>
            <path d="M34.74 115.94H40a.292.292 0 0 1 .288.232l.668 3.008a.5.5 0 0 1-.496.604c-1.328-.024-3.42-.104-5.092-.104-1.032 0-2.944.108-4.364.108s-1.6-1.404-1.028-1.532c2.612-.572 3.388-1.356 4.22-2.108a.824.824 0 0 1 .544-.208z" fill="#263238"/>
            <path fill="#000" opacity=".2" d="M39.048 108.492H34.38l.324 4.044h4.668z"/>
            <path d="M26.916 50.088s2.584 21.636 3.128 29.424c.756 10.84 3.68 32.24 3.68 32.24h6.2s.664-21.856-.456-31.58c1.544-8.484 1.056-29.432 1.056-29.432l-13.608-.652z" fill="#0066EB"/>
            <path fill="#263238" d="M33.476 111.884h6.808l.308-2.18-7.668-.144z"/>
            <path d="M33.6 116.472c-.23.017-.46-.043-.652-.172a.5.5 0 0 1-.168-.424c0-.096.054-.184.14-.228.376-.192 1.468.48 1.6.556a.08.08 0 0 1 .04.08.092.092 0 0 1-.064.068 4 4 0 0 1-.896.12zm-.504-.7a.212.212 0 0 0-.104.02c-.02 0-.044.032-.048.092a.32.32 0 0 0 .108.292c.184.156.628.176 1.2.06a3.232 3.232 0 0 0-1.144-.464h-.012z" fill="#0066EB"/>
            <path d="M34.48 116.352h-.04c-.348-.192-1.028-.932-.956-1.312a.26.26 0 0 1 .256-.208.428.428 0 0 1 .34.1c.4.324.476 1.3.48 1.34a.088.088 0 0 1-.036.076.092.092 0 0 1-.044.004zm-.684-1.372h-.036c-.104 0-.112.064-.116.084-.044.22.4.8.736 1.048a1.944 1.944 0 0 0-.4-1.064.3.3 0 0 0-.184-.068z" fill="#0066EB"/>
            <path d="m29.056 20.252-3.736-.048c-1.256 0-2.504-.04-3.74-.06-.376 0-.744-.024-1.116-.04.024 0 .04-.044.06-.064.264-.28.528-.568.8-.844l.4-.42c.124-.136.284-.288.368-.4l.34-.432a2.068 2.068 0 0 0-2.168-3.272l-.74.2c-.228.068-.456.144-.684.22-.448.156-.888.328-1.324.516-.879.388-1.728.84-2.54 1.352a18.252 18.252 0 0 0-2.38 1.812 15.768 15.768 0 0 0-2.124 2.364 3.504 3.504 0 0 0 1.408 5.3l.364.16c.822.354 1.673.635 2.544.84.76.196 1.48.324 2.188.444.708.12 1.4.216 2.088.3a69.075 69.075 0 0 0 6.088.424c1.34.04 2.652.04 4.044-.024a4.168 4.168 0 0 0-.136-8.332l-.004.004z" fill="#FFC3BD"/>
            <path d="M31.232 27.552c-3.228 3.68-10.996 2.304-10.996 2.304l.428-9.168a40.4 40.4 0 0 1 8.104-.94c4.56-.008 5.048 4.852 2.464 7.804z" fill="#263238"/>
            <path d="M22.616 24.732c-.192 1.48-.4 3.472-.524 6.152-1.684 8.52-2.312 14.556-.824 18.96 1.176 1.452 16.5 1.172 19.256.892 1.6-3.96 1.768-15.328 1.956-24.884a5.508 5.508 0 0 0-4.58-5.528 36.996 36.996 0 0 0-10.448-.352 5.504 5.504 0 0 0-4.836 4.76z" fill="#263238"/>
            <path d="M37.484 30.548c.052 2.912 2.164 7.564 4.54 9.924.144-2.46.236-5.128.308-7.82l-4.848-2.104z" fill="#000" opacity=".2"/>
            <path d="m50.836 36.208-.136-.32a30.4 30.4 0 0 0-1.956-3.868 43.451 43.451 0 0 0-2.276-3.424 53.757 53.757 0 0 0-2.504-3.152c-.44-.504-.876-1.008-1.336-1.496l-.692-.728-.736-.744a4.168 4.168 0 0 0-6.032 5.748l.12.132 2.348 2.612c.8.888 1.564 1.792 2.324 2.692.368.452.748.904 1.092 1.364.344.46.708.904 1.052 1.36.496.692.976 1.38 1.404 2.056-.065.341-.148.68-.248 1.012a29.072 29.072 0 0 1-1.012 2.856c-.4.988-.824 2-1.264 2.996-.44.996-.912 2.036-1.332 3.036l-.04.088a2.104 2.104 0 0 0 3.36 2.364A33.2 33.2 0 0 0 45.48 48.2a31.999 31.999 0 0 0 3.284-4.4c.349-.55.668-1.117.956-1.7a15.9 15.9 0 0 0 .84-1.968c.307-.863.48-1.768.512-2.684.01-.425-.07-.848-.236-1.24z" fill="#FFC3BD"/>
            <path d="M38.172 20.376c5.396.924 8.912 8.228 8.912 8.228L40.58 35.6s-3.748-3.816-6-7.352c-2.428-3.848-.272-8.528 3.592-7.872zM28.316 8.86c-.904-1.516-1.2-3.6.456-5.724a1.68 1.68 0 0 1-1.648-.8A9.916 9.916 0 0 1 33.56.096c4.84 0 5.2 1.868 5.036 3.144 3.312.212 5.728 8.824-2.668 10.348-4.804-5.06-7.612-4.728-7.612-4.728z" fill="#263238"/>
            <path d="M38.292 3.396s1.348-1.376-.328-3.04c.764.21 1.363.805 1.576 1.568.236.968-.416 1.744-1.248 1.472z" fill="#263238"/>
            <path d="M36.436 12.536c-.128 2.652-.368 5.668.076 7.784-.688 1.084-2.448 2.332-5.6 2.612-1.12-.636-2.6-2.192-2.084-2.992 1.34-.86 1.908-3.464 1.524-5.412l6.084-1.992z" fill="#FFC3BD"/>
            <path d="m34.9 13.036-4.556 1.492c.155.83.162 1.68.02 2.512 1.36-.044 3.244-1.068 3.952-2.028a2.528 2.528 0 0 0 .584-1.976z" fill="#000" opacity=".2"/>
            <path d="M37.764 8.336c-.844 3.252-1.172 5.2-3.164 6.564-2.996 2.052-6.764-.248-6.912-3.684-.128-3.096 1.272-7.896 4.752-8.58a4.584 4.584 0 0 1 5.324 5.7z" fill="#FFC3BD"/>
            <path d="M37.092 3.68c-1.428 1.016-3.2 5.32.4 7.048 3.232-2.84 2.396-7.048-.4-7.048z" fill="#263238"/>
            <path d="M37.916 4.196c.612-2.832-6.536-4.296-8.8-.988-.768 1.992 8.368 3.752 8.8.988zM32.584 11.788a6.912 6.912 0 0 0-2.352-.596.084.084 0 0 0-.084.088c.01.053.054.093.108.096a6.7 6.7 0 0 1 2.256.568c.046.02.1.001.124-.044a.084.084 0 0 0-.052-.112z" fill="#263238"/>
            <path d="M38.544 11.892a3.2 3.2 0 0 1-2.224 1.004c-1.12.024-1.404-1.044-.864-1.956.488-.8 1.656-1.824 2.672-1.416 1.016.408 1.12 1.604.416 2.368z" fill="#FFC3BD"/>
            <path d="M32.592 8.28c-.052.268-.236.46-.4.424-.164-.036-.272-.28-.22-.548.052-.268.236-.456.4-.4.164.056.272.244.22.524zM29.564 7.692c-.052.268-.236.456-.4.424-.164-.032-.276-.28-.224-.548.052-.268.236-.46.4-.424.164.036.26.28.224.548z" fill="#263238"/>
            <path d="M30.5 8a9.812 9.812 0 0 1-1.728 2.044c.4.532 1.284.428 1.284.428L30.5 8z" fill="#ED847E"/>
            <path d="M32.156 6.724a.172.172 0 0 1 .16.048c.26.315.656.486 1.064.46a.164.164 0 0 1 .184.136.156.156 0 0 1-.136.18 1.6 1.6 0 0 1-1.352-.564.156.156 0 0 1 0-.224.204.204 0 0 1 .08-.036zM28.628 5.836a.144.144 0 0 1-.084-.052.16.16 0 0 1 .028-.228A1.6 1.6 0 0 1 30 5.248c.084.029.13.119.104.204a.172.172 0 0 1-.204.1 1.276 1.276 0 0 0-1.132.256.14.14 0 0 1-.14.028z" fill="#263238"/>
            <path d="m41.54 48.224-3.436-.024 1.776 3.944s2.932-.628 2.772-2.22l-1.112-1.7z" fill="#FFC3BD"/>
            <path d="m36.356 50.908.564 1.112a1.336 1.336 0 0 0 1.684.632l1.276-.508-1.776-3.944-1.364 1.04a1.332 1.332 0 0 0-.384 1.668z" fill="#FFC3BD"/>
            <path d="M15.384 45.32a2.132 2.132 0 0 1-1.524-3.6c1.528-1.576 2.908-2.8 4.124-3.868 2.936-2.588 3.948-3.6 3.852-5.54a19.488 19.488 0 0 0-.76-3.528c-.876-3.22-1.868-6.864-.168-9.788.912-1.572 2.46-2.648 4.604-3.2a2.128 2.128 0 0 1 1.064 4.12c-1.508.4-1.872 1.012-2 1.22-.8 1.38-.028 4.236.596 6.528a22.22 22.22 0 0 1 .904 4.44c.2 4.1-2.22 6.236-5.288 8.94-1.156 1.024-2.472 2.184-3.888 3.64a2.116 2.116 0 0 1-1.516.636z" fill="#0066EB"/>
            <path d="m20.052 14.76 3.328-.852-.776 4.256s-2.996.092-3.22-1.488l.668-1.916zM25.716 16.164l-.256 1.112a1.396 1.396 0 0 1-1.552 1.068l-1.304-.18.776-4.256 1.528.66c.62.267.96.939.808 1.596z" fill="#FFC3BD"/>
            <rect fill="#263238" transform="rotate(44.99 7.519 44.908)" x="6.419" y="35.53" width="2.2" height="18.756" rx="1.036"/>
            <rect fill="#263238" transform="rotate(45 13.665 51.047)" x="12.565" y="41.669" width="2.2" height="18.756" rx="1.036"/>
            <path d="m4.565 42.713 8.313-8.313a2.868 2.868 0 0 1 4.056 0l7.266 7.267a2.868 2.868 0 0 1 0 4.056l-8.313 8.312L4.565 42.713z" fill="#0066EB"/>
            <path d="m4.565 42.713 8.313-8.313a2.868 2.868 0 0 1 4.056 0l7.266 7.267a2.868 2.868 0 0 1 0 4.056l-8.313 8.312L4.565 42.713z" fill="#FFF" opacity=".7"/>
            <path d="M7.432 39.824 4.552 42.7l11.324 11.324 2.876-2.88a2.296 2.296 0 0 0-.556-.888L8.32 40.4a2.296 2.296 0 0 0-.888-.576z" fill="#0066EB" opacity=".2"/>
            <rect fill="#0066EB" transform="rotate(-45 10.594 47.984)" x="8.2" y="38.606" width="4.788" height="18.756" rx="2.248"/>
        </g>
    </g>
</svg>
