<svg width="200" height="150" viewBox="0 0 200 150" xmlns="http://www.w3.org/2000/svg">
    <g fill-rule="nonzero" fill="none">
        <path fill="#EBEBEB" d="M0 130.96h200v1H0zM166.712 137.396h13.248v1h-13.248zM129.012 138.484h3.476v1h-3.476zM158.636 133.684h7.676v1h-7.676zM20.984 134.356H38.26v1H20.984zM41.824 134.356h2.532v1h-2.532zM52.588 136.044H90.06v1H52.588zM94.8 113.12H17.564a2.284 2.284 0 0 1-2.28-2.284V2.264A2.284 2.284 0 0 1 17.564 0H94.8a2.284 2.284 0 0 1 2.284 2.284v108.552a2.284 2.284 0 0 1-2.284 2.284zM17.564.08a2.184 2.184 0 0 0-2.18 2.184v108.572c0 1.205.975 2.182 2.18 2.184H94.8a2.188 2.188 0 0 0 2.184-2.184V2.264A2.188 2.188 0 0 0 94.8.08H17.564zM181.324 113.12h-77.24a2.288 2.288 0 0 1-2.284-2.284V2.264A2.288 2.288 0 0 1 104.084 0h77.24a2.284 2.284 0 0 1 2.276 2.264v108.572a2.284 2.284 0 0 1-2.276 2.284zM104.084.08a2.188 2.188 0 0 0-2.184 2.184v108.572a2.188 2.188 0 0 0 2.184 2.184h77.24a2.188 2.188 0 0 0 2.184-2.184V2.264A2.188 2.188 0 0 0 181.324.08h-77.24z"/>
        <path fill="#FAFAFA" d="M37.296 4.3h28.5v96.684h-28.5z"/>
        <path fill="#F5F5F5" d="M61.552 4.3h-1.664l-9.94 96.684h1.664z"/>
        <path fill="#E0E0E0" d="M37.112 4.672h28.18v1h-28.18z"/>
        <path fill="#EBEBEB" d="M37.112 100.136h28.18v1.824h-28.18z"/>
        <path fill="#EBEBEB" d="M38.196 101.88h26.628v1H38.196zM38.196 4.672h26.628v97.208h1.596V3.476H36.6v98.404h1.596z"/>
        <path fill="#FAFAFA" d="M69.012 4.3h28.5v96.684h-28.5z"/>
        <path fill="#F5F5F5" d="M89.604 4.3H80.52l-9.94 96.684h9.084z"/>
        <path fill="#E0E0E0" d="M68.828 4.672h28.98v1h-28.98z"/>
        <path fill="#EBEBEB" d="M68.828 100.136h28.98v1.824h-28.98z"/>
        <path fill="#EBEBEB" d="M69.912 101.88H96.54v1H69.912zM69.912 4.672H96.54v97.208h1.592V3.476H68.316v98.404h1.596z"/>
        <path fill="#FAFAFA" d="M100.724 4.3h27.7v96.684h-27.7z"/>
        <path fill="#F5F5F5" d="M116.42 4.3h-1.664l-9.94 96.684h1.664z"/>
        <path fill="#E0E0E0" d="M100.544 4.672h28.18v1h-28.18z"/>
        <path fill="#EBEBEB" d="M100.544 100.136h28.18v1.824h-28.18z"/>
        <path fill="#EBEBEB" d="M101.628 101.88h26.628v1h-26.628zM101.628 4.672h26.624v97.208h1.596V3.476h-29.816v98.404h1.596z"/>
        <path fill="#FAFAFA" d="M132.44 4.3h28.5v96.684h-28.5z"/>
        <path fill="#F5F5F5" d="M158.152 4.3h-9.084l-9.944 96.684h9.088z"/>
        <path fill="#E0E0E0" d="M132.256 4.672h28.18v1h-28.18z"/>
        <path fill="#EBEBEB" d="M132.256 100.136h28.18v1.824h-28.18z"/>
        <path fill="#EBEBEB" d="M133.34 4.672h26.628v97.208h1.596V3.476h-29.816v98.404h1.592zM133.34 101.88h26.628v1H133.34zM46.604 78.744h12.372v21.396H46.604z"/>
        <path fill="#EBEBEB" d="M56.6 75.752v5.368h-7.62v-5.368z"/>
        <path fill="#FAFAFA" d="M58.184 81.12H56.6v-1.584h1.584zM55.12 81.12h-1.584v-1.584h1.584zM52.052 81.12h-1.584v-1.584h1.584z"/>
        <path fill="#F0F0F0" d="M48.984 81.12H47.4v-1.584h1.584zM58.184 83.996H56.6v-1.584h1.584zM55.12 83.996h-1.584v-1.584h1.584z"/>
        <path fill="#FAFAFA" d="M52.052 83.996h-1.584v-1.584h1.584zM48.984 83.996H47.4v-1.584h1.584z"/>
        <path fill="#F0F0F0" d="M58.184 86.876H56.6v-1.584h1.584z"/>
        <path fill="#FAFAFA" d="M55.12 86.876h-1.584v-1.584h1.584zM52.052 86.876h-1.584v-1.584h1.584zM55.12 78.632h-1.584v-1.584h1.584z"/>
        <path fill="#F0F0F0" d="M52.052 78.632h-1.584v-1.584h1.584zM48.984 86.876H47.4v-1.584h1.584z"/>
        <path fill="#FAFAFA" d="M58.184 89.756H56.6v-1.584h1.584z"/>
        <path fill="#F0F0F0" d="M55.12 89.756h-1.584v-1.584h1.584zM52.052 89.756h-1.584v-1.584h1.584z"/>
        <path fill="#FAFAFA" d="M48.984 89.756H47.4v-1.584h1.584z"/>
        <path fill="#F0F0F0" d="M58.184 92.636H56.6v-1.584h1.584z"/>
        <path fill="#FAFAFA" d="M55.12 92.636h-1.584v-1.584h1.584zM52.052 92.636h-1.584v-1.584h1.584z"/>
        <path fill="#F0F0F0" d="M48.984 92.636H47.4v-1.584h1.584zM58.184 95.512H56.6v-1.584h1.584z"/>
        <path fill="#FAFAFA" d="M55.12 95.512h-1.584v-1.584h1.584z"/>
        <path fill="#F0F0F0" d="M52.052 95.512h-1.584v-1.584h1.584z"/>
        <path fill="#FAFAFA" d="M48.984 95.512H47.4v-1.584h1.584zM58.184 98.392H56.6v-1.584h1.584zM55.12 98.392h-1.584v-1.584h1.584z"/>
        <path fill="#F0F0F0" d="M52.052 98.392h-1.584v-1.584h1.584zM48.984 98.392H47.4v-1.584h1.584zM135.052 86.536h11.084v13.6h-11.084z"/>
        <path fill="#E6E6E6" d="M136.016 88.048H140.012v1.416h-3.996z"/>
        <path fill="#FAFAFA" d="M136.016 90.796H140.012v1.42h-3.996z"/>
        <path fill="#E6E6E6" d="M136.016 93.544H140.012v1.42h-3.996z"/>
        <path fill="#FAFAFA" d="M136.016 96.292h3.996v1.42H136.016zM141.172 88.048H145.168v1.416h-3.996zM141.172 90.796h3.996v1.42h-3.996z"/>
        <path fill="#E6E6E6" d="M141.172 93.544H145.168v1.42h-3.996z"/>
        <path fill="#FAFAFA" d="M141.172 96.292H145.168v1.42h-3.996z"/>
        <path fill="#F0F0F0" d="M82.652 91.688h10.072v8.452H82.652z"/>
        <path fill="#FAFAFA" d="M92.08 94.032h-1.288v-1.288h1.288zM89.584 94.032h-1.288v-1.288h1.288zM87.084 94.032h-1.288v-1.288h1.288zM84.588 94.032H83.3v-1.288h1.288zM92.08 96.372h-1.288v-1.288h1.288zM89.584 96.372h-1.288v-1.288h1.288zM87.084 96.372h-1.288v-1.288h1.288z"/>
        <path fill="#E6E6E6" d="M84.588 96.372H83.3v-1.288h1.288zM92.08 98.716h-1.288v-1.288h1.288zM89.584 98.716h-1.288v-1.288h1.288z"/>
        <path fill="#FAFAFA" d="M87.084 98.716h-1.288v-1.288h1.288z"/>
        <path fill="#E6E6E6" d="M84.588 98.716H83.3v-1.288h1.288z"/>
        <path fill="#F0F0F0" d="M71.216 85.44h10.072v14.7H71.216z"/>
        <path fill="#FAFAFA" d="M76.856 86.084h3.788v3.632h-3.788zM71.86 86.084h3.788v3.632H71.86zM76.856 90.768h3.788V94.4h-3.788zM71.86 90.768h3.788V94.4H71.86zM76.856 95.452h3.788v3.632h-3.788zM71.86 95.452h3.788v3.632H71.86z"/>
        <g transform="translate(22.4 139.6)" fill="#F5F5F5">
            <ellipse cx="77.6" cy="4.896" rx="77.556" ry="4.528"/>
        </g>
        <g transform="translate(105.6 9.6)">
            <path fill="#0066EB" d="M72.228.244V88.34l-10.6 10.6H.264V.244z"/>
            <path fill="#FFF" opacity=".8" d="M72.228.244V88.34l-10.6 10.6H.264V.244z"/>
            <path fill="#000" opacity=".2" d="M61.628 98.94V88.652h10.6L61.836 99.044"/>
            <path d="M27.496 8.8H7.648a1.052 1.052 0 0 1-1.052-1.052 1.052 1.052 0 0 1 1.052-1.056h19.848a1.056 1.056 0 0 1 1.052 1.056c0 .581-.471 1.052-1.052 1.052zM63.496 17.336H15.648a1.052 1.052 0 0 1-1.052-1.056c0-.581.471-1.052 1.052-1.052h47.848c.581 0 1.052.471 1.052 1.052 0 .582-.47 1.054-1.052 1.056zM63.496 21.484H7.648a1.052 1.052 0 0 1-1.052-1.052 1.052 1.052 0 0 1 1.052-1.056h55.848a1.056 1.056 0 0 1 1.052 1.056c0 .581-.471 1.052-1.052 1.052zM63.496 26.172H7.648a1.052 1.052 0 0 1-1.052-1.056c0-.581.471-1.052 1.052-1.052h55.848c.581 0 1.052.471 1.052 1.052 0 .582-.47 1.054-1.052 1.056zM63.496 30.856H7.648a1.052 1.052 0 0 1 0-2.104h55.848a1.052 1.052 0 0 1 0 2.104zM63.496 35.544H7.648a1.052 1.052 0 0 1-1.052-1.052 1.048 1.048 0 0 1 1.052-1.052h55.848a1.052 1.052 0 1 1 0 2.104zM63.496 40.232H7.648a1.052 1.052 0 0 1-1.052-1.052 1.052 1.052 0 0 1 1.052-1.056h55.848a1.056 1.056 0 0 1 1.052 1.056c0 .581-.471 1.052-1.052 1.052z" fill="#000" opacity=".1"/>
            <rect fill="#000" opacity=".1" x="6.596" y="42.812" width="57.956" height="2.108" rx="1.052"/>
            <path d="M63.496 49.6H7.648a1.052 1.052 0 0 1 0-2.104h55.848a1.052 1.052 0 1 1 0 2.104zM63.496 54.292H7.648a1.052 1.052 0 0 1-1.052-1.052 1.048 1.048 0 0 1 1.052-1.052h55.848a1.052 1.052 0 1 1 0 2.104zM63.496 58.98H7.648a1.052 1.052 0 0 1-1.052-1.052 1.052 1.052 0 0 1 1.052-1.056h55.848a1.056 1.056 0 0 1 1.052 1.056c0 .581-.471 1.052-1.052 1.052zM63.496 63.668H7.648a1.052 1.052 0 0 1-1.052-1.056c0-.581.471-1.052 1.052-1.052h55.848c.581 0 1.052.471 1.052 1.052 0 .582-.47 1.054-1.052 1.056zM31.496 68.352H7.648a1.052 1.052 0 1 1 0-2.104h23.848a1.052 1.052 0 0 1 0 2.104z" fill="#000" opacity=".1"/>
            <path d="m59.2 21.832-.076-.064c-.216-.164-.34-.108-.44-.424-.072-.228 0-.484-.084-.72-.19-.406-.408-.8-.652-1.176l-.984-1.772a1.7 1.7 0 0 0-2.308-.656l-9.06 5.048c-.036.304-.288.512-.34.8a.5.5 0 0 0 .152.472.468.468 0 0 1-.28-.1c-.54-.3-.684-.54-1.24-.236-.24.128-.476.264-.712.4l-2.4 1.34-7.52 4.188-8.8 4.912-7.332 4.084c-1 .556-2.212 1.044-3.104 1.752.248.128.292.324.072.516l-.4.364c0 .1.144.1.236.06l.496-.212a5.02 5.02 0 0 1-1.228 1.116 10 10 0 0 1-2.512 1.032l.424-.532c.032-.044.072-.1.044-.152-.028-.052-.08-.056-.128-.06-.212-.024-.424 0-.58-.156-1.368.8-2.8 1.56-4.192 2.336a1.7 1.7 0 0 0-.656 2.308l9.136 16.4a1.692 1.692 0 0 0 2.304.656L19.44 62c0-.284.224-.6.056-.86a.228.228 0 0 1-.044-.108c0-.052.048-.092.092-.12.246-.156.529-.247.82-.264.1 0 .232.044.216.14 0-.088.516-.272.6-.3.04.216-.108.448.144.492.252.044.636-.4.8-.48l2.4-1.34 7.6-4.228 8.336-4.644L46 47.2c.2-.116.436-.252.628-.348.07-.367.248-.704.512-.968.4-.276 1.032.028 1.364-.364.064-.076.104-.168.16-.248.112-.13.248-.237.4-.316a.628.628 0 0 1 .336-.132c.12 0 .248.1.232.22.824-.192 1.568-.748 2.296-1.16.264-.148 2.58-1.236 2.572-1.408-.032-.532.292-.988.276-1.536 0-.104-.204-.8-.112-.852-2.08 1.24-4.24 2.368-6.36 3.544-.072.044-.344.136-.4.216 0 0-.02.036-.028.056l-.06.132v.032c-.086.272-.188.54-.304.8 0 .036-.452.596-.488.464-.176-.644-.4-.744-.892-.48l-.704.4-2.236 1.244-7.532 4.2-8.876 4.944-7.396 4.12-3.1 1.724a593.376 593.376 0 0 0-1.868-3.356l-1.2-2.156c-.121-.299-.3-.57-.528-.8-.172-.128-.464-.096-.616-.212-.372-.284-.64-.8-.992-1.132-.24-.224-.604-.896-.504-1.268.12.048.24.1.36.136a1.248 1.248 0 0 1 .04-.744c-1.2-2.02-2.304-4.132-3.452-6.196l-.076-.132 2.8-1.56 2.044-1.14a7.08 7.08 0 0 0 1.2-.66c.26-.224.524-.504.8-.744.185-.14.387-.26.6-.352l.756-.368a.284.284 0 0 1 .128-.04c.045.005.09.016.132.032.4.084 1.392-.656 1.752-.856l2.328-1.296 7.024-3.916 8.752-4.872 8.76-4.884 7.048-3.924 3.6-2 .168-.092 3.892 6.988c.24.471.626.852 1.1 1.088.16.052.34.164.32.328-.02.164-.26.3-.204.468.056.168.364.104.436.256.072.152-.124.4-.1.608a2.4 2.4 0 0 0 .364.692l1.132 2.036c.632 1.128 1.26 2.26 1.896 3.4l-6.92 3.856a.34.34 0 0 1 .084.1l.036.092c.138.049.271.108.4.176.112.063.18.183.176.312a.352.352 0 0 1-.184.304l-.424.24a.464.464 0 0 1-.364.38.888.888 0 0 1-.148 0 .36.36 0 0 1-.296.06.368.368 0 0 1-.248-.444.54.54 0 0 1 .064-.116.36.36 0 0 1 .024-.372h-.128c-.072 0-.136-.04-.204-.06a2 2 0 0 0-.8.944.108.108 0 0 0-.024.076c0 .056.088.06.14.084.12.056.092.232.032.348-.06.116-.132.264-.052.368.03.035.064.067.1.096.172.196-.092.764.328.532a.5.5 0 0 1 .052-.364.536.536 0 0 1 .308-.228c.31-.075.628-.121.948-.136l8.34-4.664a1.7 1.7 0 0 0 .656-2.308l-.048-.084-3.768-6.764-2.176-3.912c-.212-.372-.4-.76-.632-1.128a1.424 1.424 0 0 0-.252-.372z" fill="#0066EB"/>
            <path d="M20.664 43.932c-.276-.336-.192-.344-.244-.704v-.024l-.032-.036-.048-.056a7.38 7.38 0 0 0-.564.28l-3.684 2.052 1.484 2.66c-.208-.368.528-.26.556-.264.078-.023.159-.036.24-.04.08.017.15.064.196.132.154.269.2.586.128.888-.044.4.168.8-.06 1.2.196.32 1.968 3.544 1.976 3.54l3.684-2.052c.212-.12.716-.332.84-.544.124-.212-.072-.544.148-.644a.592.592 0 0 1 .508.048 4.456 4.456 0 0 0 .716-5.408c-1.036-1.86-3.388-2.968-5.448-2.104-.144.06.048.704-.296.776a.948.948 0 0 1 .276-.328M23.336 50l-1.716.956c-.14-.252-.276-.504-.42-.748.18.304-.316.208-.42.14-.252-.168-.32-.652-.328-.924a2.456 2.456 0 0 0-.4-1.312c-.403-.728-.803-1.456-1.2-2.184l1.716-.956c1.6-.896 3.2-.524 4.064 1.028.864 1.552.316 3.116-1.296 4zM32.844 37.12c.088.19.113.403.072.608-.02.112-.2.4-.176.472.064.16.128.32.188.48.01.026.026.05.044.072.03.02.067.032.104.032.636.056.608.12.648.656.036.46.432.724.656 1.124a2.932 2.932 0 0 1-3.6 4.192.424.424 0 0 1-.048.04.4.4 0 0 1-.272.032 1.2 1.2 0 0 1-.844-.892.26.26 0 0 1 0-.096 3.016 3.016 0 0 1-.3-.448 2.828 2.828 0 0 1 1.092-4 2.916 2.916 0 0 1 1.648-.376l-.032-.048c-.344-.456.896-.64.336-.948-.236-.128-.196-.708-.256-.944a5.484 5.484 0 0 0-2.588.716c-2.56 1.428-3.444 4.256-2.1 6.668a4.704 4.704 0 0 0 2.62 2.204c.263.115.545.18.832.192.328-.028.168 0 .308-.196.14-.196.056-.28.268-.488.212-.208.46-.332.504-.652 0 .144.16.248.16.4v.128a.272.272 0 0 0 .068.14c.136.184.364.4.368.612a4.732 4.732 0 0 0 1.656-.608c2.548-1.42 3.452-4.244 2.1-6.664-.7-1.236-2.016-2.328-3.456-2.408zM41.024 31.552l2.744 4.924-6.776-2.68-1.552.868c1.048 1.88 2.16 3.74 3.144 5.656.068-.208.228-.248.42-.276.36-.048.348.132.544.488.024.044.052.088.096.096.044.008.132-.064.204-.056.072.008.1.096.08.164a.848.848 0 0 1-.1.188c-.116.22.076.36.052.56 0 .104-.348.528-.308.6l.4.688 1.856-1.032-.496-.888h-.092c-.54.072-.3-.636-.42-.928a10.736 10.736 0 0 0-.66-1.2L39.068 36.8l5.508 2.168a1.136 1.136 0 0 1 .056-.468c.044-.084.4-.24.4-.32.02.258.141.498.336.668.212.188.212.16.172.492l.328.132 1.544-.86-4.52-8.108-1.868 1.048zM50.348 35.012 49.3 33.136l3.768-2.1-.8-1.46-3.764 2.1-.98-1.764 2.544-1.416a1.2 1.2 0 0 1 .4-.332.36.36 0 0 1 .256-.028l1.076-.596s-.764-1.364-.836-1.508c-.368.168 0 .632-.372.856.076.08.188.364 0 .4-.108 0-.188-.136-.296-.124-.108.012-.112.064-.168.048a.116.116 0 0 1-.076-.068 1.672 1.672 0 0 0-.196-.34c-.252-.244-2.552 1.288-2.872 1.468l-2.14 1.2 4.516 8.108 1.804-1.004.036-.048c.132-.168.26-.34.4-.496a.364.364 0 0 1 .516.016l3.524-1.964-.84-1.508-4.452 2.436z" fill="#0066EB"/>
        </g>
        <g transform="translate(46 33.6)">
            <path d="M16.252.3H2.288C1.168.3.26 1.208.26 2.328v13.576c0 1.12.908 2.028 2.028 2.028h4.468L3.748 22.02l5.2-4.088h7.3c1.12 0 2.028-.908 2.028-2.028V2.328A2.028 2.028 0 0 0 16.252.3z" fill="#0066EB"/>
            <path d="M16.252.3H2.288C1.168.3.26 1.208.26 2.328v13.576c0 1.12.908 2.028 2.028 2.028h4.468L3.748 22.02l5.2-4.088h7.3c1.12 0 2.028-.908 2.028-2.028V2.328A2.028 2.028 0 0 0 16.252.3z" fill="#FFF" opacity=".6"/>
            <circle fill="#0066EB" cx="9.272" cy="9.116" r="6.34"/>
            <circle fill="#000" opacity=".2" transform="rotate(-76.72 9.27 9.112)" cx="9.27" cy="9.112" r="5.436"/>
            <path d="M8.596 11.712a.56.56 0 0 1-.4-.156l-2.308-2.26a.557.557 0 0 1 .776-.8l1.892 1.852 3.272-3.652a.556.556 0 0 1 .828.74l-3.66 4.084a.552.552 0 0 1-.4.184v.008z" fill="#FFF"/>
        </g>
        <g transform="translate(20.4 42)">
            <path d="m16.76 93.168 11.524-1.136V79.036h4.568v12.992l11.572 1.14a2.24 2.24 0 0 1 2.024 2.232v1.732H14.736V95.4a2.24 2.24 0 0 1 2.024-2.232z" fill="#263238"/>
            <path d="m16.76 93.168 11.524-1.136V79.036h4.568v12.992l11.572 1.14a2.24 2.24 0 0 1 2.024 2.232v1.732H14.736V95.4a2.24 2.24 0 0 1 2.024-2.232z" fill="#FFF" opacity=".1"/>
            <circle fill="#263238" cx="45.228" cy="99.276" r="2.988"/>
            <circle fill="#263238" cx="15.956" cy="99.276" r="2.988"/>
            <path d="M31.984 82.516h-2.848c-.912 0-1.652-.74-1.652-1.652V68.088h6.152v12.776c0 .912-.74 1.652-1.652 1.652z" fill="#263238"/>
            <path d="M31.984 82.516h-2.848c-.912 0-1.652-.74-1.652-1.652V68.088h6.152v12.776c0 .912-.74 1.652-1.652 1.652z" fill="#FFF" opacity=".2"/>
            <path d="M14.616 43.048S18.04 64.4 24.8 68.092h-6.872s-6.8-7.28-8.848-25.044h5.536z" fill="#263238"/>
            <path d="M14.616 43.048S18.04 64.4 24.8 68.092h-6.872s-6.8-7.28-8.848-25.044h5.536z" fill="#FFF" opacity=".1"/>
            <path d="M17.6 65.072h26.768a2 2 0 0 1 2 2v2.676H15.6v-2.676a2 2 0 0 1 2-2z" fill="#0066EB"/>
            <rect fill="#263238" x="14.304" y="67.408" width="33.332" height="2.336" rx=".804"/>
            <rect fill="#FFF" opacity=".6" x="14.304" y="67.408" width="33.332" height="2.336" rx=".804"/>
            <path d="M8.268 47.392h10.996c3.224 0 5.316-2.584 4.676-5.772l-.856-4.256c-.64-3.2-3.772-5.768-6.992-5.768H5.096c-3.224 0-5.316 2.584-4.676 5.768l.856 4.256c.64 3.18 3.768 5.772 6.992 5.772z" fill="#0066EB"/>
            <path fill="#E4897B" d="m66.616 83.156-2.52.988-1.812-3.416-1.648-3.108 2.792-1.672 1.688 3.812z"/>
            <path fill="#000" opacity=".2" d="m65.116 79.76-2.832.968-1.648-3.108 2.792-1.672z"/>
            <path d="m64.592 77.896-3.428 1.84s-12.956-22.78-14.948-22.588c-1.992.192-20.892 12.232-26.656 7.784-5.764-4.448-.156-17.84-.156-17.84s11.924-3.408 13.2-.8a19.9 19.9 0 0 1 .856 2.4c.252.82.444 1.512.444 1.512.364-.148 12.14-4.976 17.396-2.4 5.364 2.648 13.292 30.092 13.292 30.092z" fill="#263238"/>
            <path d="m64.592 77.896-3.428 1.84s-12.956-22.78-14.948-22.588c-1.992.192-20.892 12.232-26.656 7.784-5.764-4.448-.156-17.84-.156-17.84s11.924-3.408 13.2-.8a19.9 19.9 0 0 1 .856 2.4c.252.82.444 1.512.444 1.512.364-.148 12.14-4.976 17.396-2.4 5.364 2.648 13.292 30.092 13.292 30.092z" fill="#FFF" opacity=".3"/>
            <path fill="#E4897B" d="m45.968 96.472-2.688-.308-.016-3.792-.004-3.48 3.252-.152-.288 4.092z"/>
            <path fill="#000" opacity=".2" d="m46.216 92.916-2.96-.472v-3.516l3.252-.172z"/>
            <path fill="#0066EB" d="m59.488 78.604 5.016-2.512.524 2.128-3.8 1.96z"/>
            <path d="M28.464 64.968s.824-.092 13.5-2.44c0 0 .288 16.208.888 28.292l3.904.124s5.6-26.8 4.94-30.864c-.66-4.064-5.476-4.596-5.476-4.596S37.856 62 28.464 64.968z" fill="#263238"/>
            <path d="M28.464 64.968s.824-.092 13.5-2.44c0 0 .288 16.208.888 28.292l3.904.124s5.6-26.8 4.94-30.864c-.66-4.064-5.476-4.596-5.476-4.596S37.856 62 28.464 64.968z" fill="#FFF" opacity=".4"/>
            <path d="M28.464 64.968s.824-.092 13.5-2.44c0 0 .288 16.208.888 28.292l3.904.124s5.6-26.8 4.94-30.864c-.66-4.064-5.476-4.596-5.476-4.596S37.856 62 28.464 64.968z" fill="#000" opacity=".3"/>
            <path fill="#0066EB" d="m42.136 89.74 5.324-.124-.728 2.192-4.32.04z"/>
            <path d="m33.92 50.212-6.908 2.46s3.632-2.712 6.464-3.972c.252.82.444 1.512.444 1.512z" fill="#000" opacity=".3"/>
            <path fill="#263238" d="m18.604 46.268.256 1.916 12.948-2.748-.3-2.264z"/>
            <path fill="#000" opacity=".2" d="m18.604 46.268.256 1.916 12.948-2.748-.3-2.264z"/>
            <path fill="#263238" d="m22.249 44.996.983-.183.61 3.284-.984.183z"/>
            <path fill="#FFF" d="m25.715 44.681 2.825-.636.483 2.142-2.825.636z"/>
            <path fill="#263238" d="m29.714 42.825.983-.18.602 3.273-.984.18z"/>
            <path fill="#FFF" opacity=".3" d="m22.249 44.996.983-.183.61 3.284-.984.183zM29.714 42.825l.983-.18.602 3.273-.984.18z"/>
            <path d="M71.624 87.628a3.568 3.568 0 0 0-1.3-.148s-1.628-.68-3.6-3.916l-1.68.22a1.396 1.396 0 0 0-1.16 1.1.8.8 0 0 0 0 .24c.072.406.171.807.296 1.2a34 34 0 0 0 1.524 3.812l.272-.112-.868-2.424c-.288-.828.716-.128 1.248.672s1.288 1.576 3.084.896c2.088-.816 2.916-1.248 2.184-1.54z" fill="#263238"/>
            <path d="M66.304 82.704S69 86.8 70.324 87.48c0 0-1.484 1.2-3.464-.728-2.556-2.476-2.984-1.628-2.984-1.628-.023-.485 0-.971.068-1.452.204-.94 2.36-.968 2.36-.968z" fill="#E4897B"/>
            <path d="M50 101.24a3.636 3.636 0 0 0-1.24-.44s-1.42-1.044-2.56-4.652l-1.684-.184a1.384 1.384 0 0 0-1.388.8.76.76 0 0 0-.072.228c-.028.409-.028.82 0 1.228.109 1.365.3 2.722.576 4.064l.292-.044-.26-2.568c-.084-.872.728.048 1.056.952.328.904.876 1.836 2.78 1.6 2.224-.3 3.128-.524 2.5-.984z" fill="#263238"/>
            <path d="M46 95.2s1.648 4.62 2.772 5.6c0 0-1.724.8-3.2-1.528-1.9-3.012-2.512-2.288-2.512-2.288.09-.475.223-.942.4-1.392.424-.88 2.54-.392 2.54-.392zM15.784 13.6l-3.384.68a1.12 1.12 0 0 1-.968.236c-1.008-.4-2.46-1.572-2.644-2-.272-.604 0-2.376.712-2.696.712-.32 3.164 2.64 3.164 2.64l3.636-.82-.516 1.96z" fill="#E4897B"/>
            <path d="M26.456 24.848s-.308-10.964-1.576-11.432c-1.268-.468-10.8.84-10.8.84l-.232-2.504s11.092-1.708 13.24-.696c2.148 1.012 2.856 17.352 2.464 20.5l-3.096-6.708z" fill="#0066EB"/>
            <path d="M26.456 24.848s-.308-10.964-1.576-11.432c-1.268-.468-10.8.84-10.8.84l-.232-2.504s11.092-1.708 13.24-.696c2.148 1.012 2.856 17.352 2.464 20.5l-3.096-6.708z" fill="#FFF" opacity=".6"/>
            <path fill="#0066EB" d="m14.244 14.496-.664-2.752.952-.344.604 3.18z"/>
            <path fill="#FFF" opacity=".7" d="m14.244 14.496-.664-2.752.952-.344.604 3.18z"/>
            <path d="M26.4 23.48s-.852 3.336-4.956 4.4c-4.104 1.064-8.644-1.716-8.644-1.716l.904 7.96 5.024 12.54 12.84-3.348S30.8 28.728 26.4 23.48z" fill="#0066EB"/>
            <path d="M26.4 23.48s-.852 3.336-4.956 4.4c-4.104 1.064-8.644-1.716-8.644-1.716l.904 7.96 5.024 12.54 12.84-3.348S30.8 28.728 26.4 23.48z" fill="#FFF" opacity=".7"/>
            <rect fill="#0066EB" opacity=".6" transform="rotate(162.49 28.84 34.75)" x="27.736" y="32.946" width="2.208" height="3.608" rx=".316"/>
            <path fill="#000" opacity=".2" d="m30.034 35.303-1.709.54-.737-2.339 1.709-.54z"/>
            <path fill="#263238" d="m27.891 32.239.954-.301.434 1.377-.954.301zM17.672 11.02c-3.164 0-5.252 3.352-4.512 8.668.74 5.316 3.704 6.848 3.704 6.848l-.188-1.284a30.16 30.16 0 0 0 10.036.56s-1.528-4.336-1.032-8.764c0 0 1.004-6.036-8.008-6.028z"/>
            <path d="m23.956 26.8 1.292 4.8-2.272-1.732s2.212 5.056 2.8 8c0 0-1.912-5.012-3.56-7.76l-.964 2.752-3.876-3.948s3.424-2.624 6.58-2.112z" fill="#000" opacity=".2"/>
            <path d="m22.068 28.348-3.944.12c1.748-2.236-1.412-6.132-1.412-6.132l3.896.844c.928 3.856 2.532 3.972 2.532 3.972l-1.072 1.196z" fill="#E4897B"/>
            <path d="M21.696 25.948A5.912 5.912 0 0 1 17.784 24c-.311-.578-.67-1.13-1.072-1.648l3.896.848c.206.97.574 1.9 1.088 2.748z" fill="#000" opacity=".2"/>
            <path d="M20.604 12.648c3.396.284 4.34 2.192 4.296 5.716-.052 4.4-1.284 7.428-5.452 6.14-5.664-1.748-4.488-12.328 1.156-11.856z" fill="#E4897B"/>
            <path d="M22.72 18c.23.53.523 1.031.872 1.492a.944.944 0 0 1-.928.308l.056-1.8z" fill="#DE5753"/>
            <path d="m20.42 17.432.736-.24s-.392.584-.736.24z" fill="#263238"/>
            <path d="M20.676 17.348a.628.628 0 0 0-.8.216.964.964 0 0 1 .8 0v-.216zM19.308 15.728a.144.144 0 0 1-.1-.044.14.14 0 0 1 0-.204 1.912 1.912 0 0 1 1.652-.432.145.145 0 0 1-.06.284c-.49-.1-1 .028-1.384.348a.14.14 0 0 1-.108.048zM24.636 15.788a.136.136 0 0 1-.088-.028 1.46 1.46 0 0 0-1.2-.368.145.145 0 0 1-.076-.28 1.728 1.728 0 0 1 1.46.42c.062.05.072.14.024.204a.144.144 0 0 1-.12.052z" fill="#263238"/>
            <path d="M16.4 18.064s1.82-2.656 1.76-4.832c0 0 6.964-2.192 6.728 4.672 0 0 1.16-6-4.668-6.636-5.828-.636-6.504 7.932-3.7 10.732 0 0-1.236-2.272-.12-3.936z" fill="#263238"/>
            <path d="M16.908 18.828c0-.825-.667-1.494-1.492-1.496-1.064.028-1.744 2.148.832 2.888.368.104.612-.244.66-1.392z" fill="#E4897B"/>
            <path d="M22.692 20.8c-.25.335-.472.688-.668 1.056-.068-.024-.14-.044-.208-.072-.94-.332-1.268-.8-1.344-1.2a1.248 1.248 0 0 1 .044-.608 1.3 1.3 0 0 1 .144-.32 4.632 4.632 0 0 0 1.712 1.032c.192.072.32.112.32.112z" fill="#263238"/>
            <path d="m22.372 20.68-.204.308c-.888-.316-1.468-.656-1.652-1.02a1.3 1.3 0 0 1 .144-.32 4.632 4.632 0 0 0 1.712 1.032z" fill="#FFF"/>
            <path d="M21.816 21.784c-.94-.332-1.268-.8-1.344-1.2.356.131.685.325.972.572a1.2 1.2 0 0 1 .372.628z" fill="#DE5753"/>
            <path d="M20.512 12.9s-1.836 5.476-5.348 5.1c-3.512-.376 2.508-6.992 2.508-6.992s5.924-1.692 8.504 1.6c2.58 3.292-1.276 5.288-1.276 5.288s.576-4.296-4.388-4.996z" fill="#263238"/>
            <path d="M17.712 17.56a.112.112 0 0 1-.096-.064.104.104 0 0 1 .06-.132c2.8-1.068 2.736-4.824 2.736-4.864a.092.092 0 0 1 .096-.1.108.108 0 0 1 .104.096c0 .04.064 3.936-2.864 5.056l-.036.008zM23.868 17.764l.736-.236s-.396.58-.736.236z" fill="#263238"/>
            <path d="M24.124 17.68a.624.624 0 0 0-.8.22.956.956 0 0 1 .8-.024v-.196z" fill="#263238"/>
            <path fill="#0066EB" d="m18.68 26.852 2.972 1.512-.048 3.012-4.248-2.476zM22.104 26.284l.176 1.828 1.94 2.052-.264-3.376z"/>
            <path d="m8.372 5.6-1.24-3.2a1.112 1.112 0 0 0-.324-.94C5.944.816 4.16.232 3.712.3c-.652.096-2 1.276-1.884 2.048.116.772 3.924 1.248 3.924 1.248l1.264 3.508L8.372 5.6z" fill="#E4897B"/>
            <path d="M13.712 34.124s2.4-1.908 1.444-6.124l-2.58-11.664L8.144 4.288 5.976 5.384s3.64 11.772 3.976 12.568c.172.4.856 6.508 1.788 10.6.856 3.768 1.972 5.572 1.972 5.572z" fill="#0066EB"/>
            <path d="M13.712 34.124s2.4-1.908 1.444-6.124l-2.58-11.664L8.144 4.288 5.976 5.384s3.64 11.772 3.976 12.568c.172.4.856 6.508 1.788 10.6.856 3.768 1.972 5.572 1.972 5.572z" fill="#FFF" opacity=".6"/>
            <path fill="#0066EB" d="m5.596 5.04 2.532-1.268.552.844-2.96 1.312z"/>
            <path fill="#FFF" opacity=".7" d="m5.596 5.04 2.532-1.268.552.844-2.96 1.312z"/>
            <path fill="#FFF" opacity=".6" d="m18.68 26.852 2.972 1.512-.048 3.012-4.248-2.476zM22.104 26.284l.176 1.828 1.94 2.052-.264-3.376z"/>
        </g>
        <g>
            <path fill="#FFF" d="M114.92 62.564h11.984v9.312H114.92z"/>
            <path fill="#000" opacity=".1" d="M123.832 62.564h3.072v9.312h-3.072z"/>
            <path fill="#0066EB" d="M114.232 80.1h13.548V63.2h-4.364l-9.184 4.396z"/>
            <path fill="#000" opacity=".2" d="M123.416 63.2h4.364v16.9h-4.364z"/>
            <path fill="#FFF" opacity=".7" d="M115.628 70.928h6.344v3.04h-6.344zM115.628 74.984h6.344v1h-6.344zM123.832 76.26h3.524v2.58h-3.524z"/>
            <path fill="#FFF" d="M109.828 62.056h11.984v9.82h-11.984z"/>
            <path fill="#000" opacity=".1" d="M118.74 62.056h3.072v9.82h-3.072z"/>
            <path fill="#0066EB" d="M109.14 80.1h13.548V63.2h-4.364l-9.184 4.396z"/>
            <path fill="#000" opacity=".2" d="M118.324 63.2h4.364v16.9h-4.364z"/>
            <path fill="#FFF" opacity=".7" d="M110.536 70.928h6.344v3.04h-6.344zM110.536 74.984h6.344v1h-6.344zM118.74 76.26h3.524v2.58h-3.524z"/>
            <path fill="#263238" d="M100.724 144.264h2.452l4.4-61.3h-3.252z"/>
            <path fill="#FFF" opacity=".1" d="M100.724 144.264h2.452l4.184-58.256.216-2.944h-3.252l-.172 2.944z"/>
            <path fill="#000" opacity=".2" d="M104.152 85.864h3.208l.216-2.8h-3.252z"/>
            <path fill="#263238" d="M82.74 144.264h2.452l.4-61.3H82.34z"/>
            <path fill="#FFF" opacity=".1" d="m82.336 83.064.068 9.888.332 51.312h2.452l.336-51.312.064-9.888z"/>
            <path fill="#000" opacity=".2" d="m82.336 83.064.068 10h3.12l.064-10z"/>
            <path fill="#263238" d="M56.724 144.264h2.452l4.4-61.3h-3.252z"/>
            <path fill="#FFF" opacity=".1" d="M56.724 144.264h2.452l4.188-58.256.212-2.944h-3.252l-.172 2.944z"/>
            <path fill="#000" opacity=".2" d="M60.152 85.864h3.212l.212-2.8h-3.252z"/>
            <path fill="#263238" d="M128.756 144.264h2.452l-3.604-61.3h-3.252z"/>
            <path fill="#FFF" opacity=".1" d="m124.352 83.064.22 2.944 4.184 58.256h2.448l-3.424-58.256-.176-2.944z"/>
            <path fill="#000" opacity=".2" d="M127.604 83.064h-3.252l.22 2.8h3.208z"/>
            <path d="M129.32 84.5H58.616a.864.864 0 0 1-.864-.864v-2.204h72.432v2.204a.864.864 0 0 1-.864.864z" fill="#0066EB"/>
            <path d="M129.32 84.5H58.616a.864.864 0 0 1-.864-.864v-2.204h72.432v2.204a.864.864 0 0 1-.864.864z" fill="#FFF" opacity=".4"/>
            <path fill="#000" opacity=".2" d="M130.184 82.964H57.752v-1.536h72.432z"/>
            <path d="M56.232 81.828H131.7a.86.86 0 0 0 .864-.864.864.864 0 0 0-.864-.864H56.232a.864.864 0 1 0 0 1.728z" fill="#0066EB"/>
            <path d="M56.232 81.828H131.7a.86.86 0 0 0 .864-.864.864.864 0 0 0-.864-.864H56.232a.864.864 0 1 0 0 1.728z" fill="#FFF" opacity=".4"/>
            <path fill="#0066EB" d="M115.484 80.092V78.74h.908l-.908-.528h.68l-.908-.592h-.86v-.68h1l-1-.396v-1.476h1v-.964h.996l-.996-.336v-.688h.712l-.584-.58-.504-.508H99.564v.692h-1.02l1.136.512v.572h-2.084v1.064h-.924l.924.464v1.188h.656v.568h1.312v1.688h-.736l.604.604v.756z"/>
            <path fill="#FFF" opacity=".7" d="M115.484 80.092V78.74h.908l-.908-.528h.68l-.908-.592h-.86v-.68h1l-1-.396v-1.476h1v-.964h.996l-.996-.336v-.688h.712l-.584-.58-.504-.508H99.564v.692h-1.02l1.136.512v.572h-2.084v1.064h-.924l.924.464v1.188h.656v.568h1.312v1.688h-.736l.604.604v.756z"/>
            <path fill="#000" opacity=".1" d="M115.484 80.092V78.74h.908l-.908-.528h.68l-.908-.592h-.86v-.68h1l-1-.396v-1.476h1v-.964h.996l-.996-.336v-.688h.712l-.584-.58-.504-.508h-8.14v.692h-1.02l1.132.512v.572h-2.084v1.064h-.924l.924.464v1.188h.656v.568h1.316v1.688h-.736l.6.604v.756z"/>
            <path fill="#000" opacity=".1" d="M99.68 73.768h7.312l-7.312-.264zM99.564 77.052h7.316l.032.512zM98.252 76.484h7.312l-7.312.256zM99.564 78.74h7.316l-7.316-.268zM99.432 79.344h7.312v.28zM97.596 74.832h7.312l-7.312-.232zM99.564 72.684h7.316l-7.316-.256zM115.396 73.08h-7.42l7.42.228zM106.992 73.768h8.404l-7.62.248zM104.908 74.832l10.488.236v-.236zM104.908 75.296h5.188l-5.188.252zM114.396 76.544l-7.516-.06 7.516-.168zM114.396 76.94h-7.652l7.652.256zM115.484 78.212h-8.492v.26zM115.484 78.74h-6.152l6.152.172z"/>
            <path d="M95.804 78.348v1.284c0 .328-.4.464-.716.464H69.44c-.328 0-.724-.136-.724-.464v-1.284h27.088z" fill="#263238"/>
            <path d="M95.804 78.348v1.284c0 .328-.4.464-.716.464H69.44c-.328 0-.724-.136-.724-.464v-1.284h27.088z" fill="#FFF" opacity=".4"/>
            <path d="M95.804 78.348v1.284c0 .328-.4.464-.716.464H78.172c-.328 0-.72-.136-.72-.464v-1.284h18.352z" fill="#000" opacity=".2"/>
            <path d="M100.096 65.02 97.04 78.872a1.036 1.036 0 0 1-.992.8H79.372a.672.672 0 0 1-.628-.868l3.048-13.744a.956.956 0 0 1 .992-.68h16.68c.448-.016.728.188.632.64z" fill="#263238"/>
            <path d="M100.096 65.02 97.04 78.872a1.036 1.036 0 0 1-.992.8H79.936a.672.672 0 0 1-.628-.868L82.36 65.06a.952.952 0 0 1 .992-.68h16.112c.448-.016.728.188.632.64z" fill="#FFF" opacity=".4"/>
            <path d="M91.872 72.06c0 1.2-1.272 2.148-2.204 2.148-.932 0-1.484-.964-1.2-2.148.284-1.184 1.2-2.108 2.104-2.144-.264 1.2.304 2.144 1.232 2.144h.068z" fill="#000" opacity=".2"/>
        </g>
    </g>
</svg>
