<svg width="20" height="20" viewBox="0 0 20 20" xmlns="http://www.w3.org/2000/svg">
    <g fill="none" fill-rule="evenodd">
        <path d="M-2-2h24v24H-2z"/>
        <path d="M15 1.34A10 10 0 1 1 .005 10.324L0 10l.005-.324A10 10 0 0 1 15 1.34zm-6.489 5.8a1 1 0 0 0-1.218 1.567L8.585 10l-1.292 1.293-.083.094a1 1 0 0 0 1.497 1.32L10 11.415l1.293 1.292.094.083a1 1 0 0 0 1.32-1.497L11.415 10l1.292-1.293.083-.094a1 1 0 0 0-1.497-1.32L10 8.585 8.707 7.293l-.094-.083-.102-.07z" fill="#E02020" fill-rule="nonzero"/>
    </g>
</svg>
